<?xml version="1.0" encoding="utf-8"?>
<!-- Generator: Adobe Illustrator 28.2.0, SVG Export Plug-In . SVG Version: 6.00 Build 0)  -->
<svg version="1.1"
	 id="svg2" xmlns:cc="http://creativecommons.org/ns#" xmlns:dc="http://purl.org/dc/elements/1.1/" xmlns:svg="http://www.w3.org/2000/svg" xmlns:rdf="http://www.w3.org/1999/02/22-rdf-syntax-ns#"
	 xmlns="http://www.w3.org/2000/svg" xmlns:xlink="http://www.w3.org/1999/xlink" x="0px" y="0px" viewBox="0 0 1280 720"
	 style="enable-background:new 0 0 1280 720;" xml:space="preserve">
<style type="text/css">
	.st0{fill-rule:evenodd;clip-rule:evenodd;fill:url(#SVGID_1_);}
	.st1{fill-rule:evenodd;clip-rule:evenodd;fill:url(#SVGID_00000011028640149176989180000013438327008709778617_);}
	.st2{fill-rule:evenodd;clip-rule:evenodd;fill:#1E4191;}
	.st3{fill-rule:evenodd;clip-rule:evenodd;fill:url(#SVGID_00000110469957302713321790000008785892590108085663_);}
	.st4{fill-rule:evenodd;clip-rule:evenodd;fill:url(#SVGID_00000170988738232267398460000016637224393979112871_);}
	.st5{fill-rule:evenodd;clip-rule:evenodd;fill:url(#SVGID_00000041989628810450298830000006985353923061490591_);}
	.st6{fill-rule:evenodd;clip-rule:evenodd;fill:url(#SVGID_00000048477866168361774970000005501271326074165920_);}
	.st7{fill-rule:evenodd;clip-rule:evenodd;fill:url(#SVGID_00000020369565239913797340000018172558470440292499_);}
	.st8{fill-rule:evenodd;clip-rule:evenodd;fill:url(#SVGID_00000056393746921122321100000013964352560705200542_);}
	.st9{fill:url(#SVGID_00000142173652847984140210000004961422323134120068_);}
	.st10{fill:url(#SVGID_00000115491844733930682040000014964841968380067715_);}
	.st11{fill:url(#SVGID_00000119808745711759644830000017031248529767385751_);}
	.st12{fill:url(#SVGID_00000021820848022972235060000015031444230455814285_);}
	.st13{fill:url(#SVGID_00000088837969428748569090000000890670455030894468_);}
	.st14{fill:url(#SVGID_00000119799363117097012820000001926925333809103538_);}
	.st15{fill:url(#SVGID_00000183959786879506282270000003258668531895165615_);}
	.st16{fill:url(#SVGID_00000133523892098978784060000009813105457760757691_);}
	.st17{fill:url(#SVGID_00000092429310898922171090000008223951742885486478_);}
	.st18{fill:url(#SVGID_00000144321306144870309290000004237301529674559913_);}
	.st19{fill:url(#SVGID_00000170972503788294999980000002919832077843350942_);}
	.st20{fill:url(#SVGID_00000071543888896614580930000003316831344929169579_);}
	.st21{fill:url(#SVGID_00000083767329840083502120000001103404276487168411_);}
	.st22{fill:url(#SVGID_00000106862336626575704310000013960576097614783885_);}
	.st23{fill:url(#SVGID_00000019671338725595878880000000650414232848460718_);}
	.st24{fill:url(#SVGID_00000083062893181953840040000003835412828758938522_);}
	.st25{fill:url(#SVGID_00000084511949678675797650000003956854419114614954_);}
	.st26{fill:url(#SVGID_00000109730253471063842000000002867918196411376567_);}
</style>
<g>
	<g>
		
			<linearGradient id="SVGID_1_" gradientUnits="userSpaceOnUse" x1="62.0501" y1="263.0259" x2="498.8799" y2="476.4992" gradientTransform="matrix(1 0 0 -1 0 722)">
			<stop  offset="1.322751e-03" style="stop-color:#24469F"/>
			<stop  offset="1" style="stop-color:#A4599C"/>
		</linearGradient>
		<path class="st0" d="M129.4,256.7l-9.7,39h144.1l10.1-39H129.4z M435.7,256.7l-10.1,39h34.5l9.7-39H435.7z M323.6,256.7l-10.1,39
			h74.9l10.1-39H323.6z M97.3,410.5l-9.7,39H224l10.1-39H97.3z M283.9,410.5l-10.1,39h37.4l10.1-39H283.9z M358.5,410.5l-10.1,39
			H428l9.7-39H358.5z M163,335.2l-9.7,39h90.2l10.1-39H163z M303.4,335.2l-10.1,39H369l9.7-39H303.4z"/>
		
			<linearGradient id="SVGID_00000072259367612477981970000015309471444811997322_" gradientUnits="userSpaceOnUse" x1="101.6554" y1="181.9818" x2="538.485" y2="395.4551" gradientTransform="matrix(1 0 0 -1 0 722)">
			<stop  offset="1.322751e-03" style="stop-color:#24469F"/>
			<stop  offset="1" style="stop-color:#A4599C"/>
		</linearGradient>
		
			<polygon style="fill-rule:evenodd;clip-rule:evenodd;fill:url(#SVGID_00000072259367612477981970000015309471444811997322_);" points="
			511.9,256.7 465.6,449.3 456.8,449.3 503.1,256.7 		"/>
		<polygon class="st2" points="273.8,256.7 129.4,256.7 119.6,295.7 263.7,295.7 		"/>
		
			<linearGradient id="SVGID_00000171716477191005778610000012717752654292710835_" gradientUnits="userSpaceOnUse" x1="211.7581" y1="384.3814" x2="444.3587" y2="209.931">
			<stop  offset="0.5747" style="stop-color:#243C91"/>
			<stop  offset="1" style="stop-color:#B455A0"/>
		</linearGradient>
		
			<polygon style="fill-rule:evenodd;clip-rule:evenodd;fill:url(#SVGID_00000171716477191005778610000012717752654292710835_);" points="
			398.5,256.7 388.4,295.7 313.5,295.7 323.6,256.7 		"/>
		
			<linearGradient id="SVGID_00000029033311784313124900000011202569454000234647_" gradientUnits="userSpaceOnUse" x1="244.8421" y1="428.4934" x2="477.4427" y2="254.043">
			<stop  offset="0.5747" style="stop-color:#243C91"/>
			<stop  offset="1" style="stop-color:#B455A0"/>
		</linearGradient>
		
			<polygon style="fill-rule:evenodd;clip-rule:evenodd;fill:url(#SVGID_00000029033311784313124900000011202569454000234647_);" points="
			469.8,256.7 460.1,295.7 425.6,295.7 435.7,256.7 		"/>
		<polygon class="st2" points="253.5,335.2 243.5,374.2 153.2,374.2 163,335.2 		"/>
		
			<linearGradient id="SVGID_00000088127054615137954020000008837387911857390515_" gradientUnits="userSpaceOnUse" x1="242.3101" y1="425.1174" x2="474.9107" y2="250.667">
			<stop  offset="0.5747" style="stop-color:#243C91"/>
			<stop  offset="1" style="stop-color:#B455A0"/>
		</linearGradient>
		
			<polygon style="fill-rule:evenodd;clip-rule:evenodd;fill:url(#SVGID_00000088127054615137954020000008837387911857390515_);" points="
			378.7,335.2 369,374.2 293.3,374.2 303.4,335.2 		"/>
		<polygon class="st2" points="234.1,410.5 224,449.5 87.6,449.5 97.3,410.5 		"/>
		
			<linearGradient id="SVGID_00000167369690780112908600000016291497074586870418_" gradientUnits="userSpaceOnUse" x1="264.5401" y1="454.7574" x2="497.1407" y2="280.307">
			<stop  offset="0.5747" style="stop-color:#243C91"/>
			<stop  offset="1" style="stop-color:#B455A0"/>
		</linearGradient>
		
			<polygon style="fill-rule:evenodd;clip-rule:evenodd;fill:url(#SVGID_00000167369690780112908600000016291497074586870418_);" points="
			283.9,410.5 321.3,410.5 311.2,449.5 273.8,449.5 		"/>
		
			<linearGradient id="SVGID_00000128480304045356076620000015081224241515204752_" gradientUnits="userSpaceOnUse" x1="298.9921" y1="500.6934" x2="531.5927" y2="326.243">
			<stop  offset="0.5747" style="stop-color:#243C91"/>
			<stop  offset="1" style="stop-color:#B455A0"/>
		</linearGradient>
		
			<polygon style="fill-rule:evenodd;clip-rule:evenodd;fill:url(#SVGID_00000128480304045356076620000015081224241515204752_);" points="
			437.8,410.5 428,449.5 348.4,449.5 358.5,410.5 		"/>
		<g id="g76_00000088102400474820071820000013155583449072552617_">
			
				<linearGradient id="SVGID_00000078740233165074812860000018318253540427165336_" gradientUnits="userSpaceOnUse" x1="294.8281" y1="495.1414" x2="527.4287" y2="320.691">
				<stop  offset="0.5747" style="stop-color:#243C91"/>
				<stop  offset="1" style="stop-color:#B455A0"/>
			</linearGradient>
			
				<polygon style="fill-rule:evenodd;clip-rule:evenodd;fill:url(#SVGID_00000078740233165074812860000018318253540427165336_);" points="
				511.9,256.7 465.6,449.3 456.8,449.3 503.1,256.7 			"/>
		</g>
	</g>
	<g>
		
			<linearGradient id="SVGID_00000014615239535074665860000006626092197480296606_" gradientUnits="userSpaceOnUse" x1="493.4258" y1="326.0203" x2="1222.4879" y2="107.7255">
			<stop  offset="0.6506" style="stop-color:#243C91"/>
			<stop  offset="1" style="stop-color:#B455A0"/>
		</linearGradient>
		<path style="fill:url(#SVGID_00000014615239535074665860000006626092197480296606_);" d="M593.3,257.4c11.2,0,20.4,3.7,27.7,11.1
			s10.9,16.6,10.9,27.5s-3.6,20-10.9,27.5c-7.3,7.4-16.5,11.1-27.7,11.1c-6.7,0-12.9-1.6-18.6-4.7c-5.7-3.1-10.1-7.4-13.3-12.8
			l12.6-7.3c1.8,3.3,4.4,5.8,7.8,7.7c3.4,1.9,7.2,2.8,11.4,2.8c6,0,11.1-1.6,15.2-4.7c4.1-3.1,6.8-7.4,8.1-12.8h-33.1v-13.7h33.1
			c-1.3-5.4-4-9.6-8.1-12.8c-4.1-3.1-9.2-4.7-15.2-4.7c-4.2,0-8,0.9-11.3,2.8c-3.4,1.9-6,4.5-7.9,7.8l-12.6-7.3
			c3.2-5.4,7.6-9.6,13.3-12.8C580.5,259,586.6,257.4,593.3,257.4z"/>
		
			<linearGradient id="SVGID_00000029015977574521382360000000736490100060813968_" gradientUnits="userSpaceOnUse" x1="498.0521" y1="341.4712" x2="1227.1141" y2="123.1764">
			<stop  offset="0.6506" style="stop-color:#243C91"/>
			<stop  offset="1" style="stop-color:#B455A0"/>
		</linearGradient>
		<path style="fill:url(#SVGID_00000029015977574521382360000000736490100060813968_);" d="M687,258.9v14h-20v60.3h-14.6v-60.3
			h-19.9v-14H687z"/>
		
			<linearGradient id="SVGID_00000124848545602264627220000004502156523826310541_" gradientUnits="userSpaceOnUse" x1="504.726" y1="363.7605" x2="1233.788" y2="145.4658">
			<stop  offset="0.6506" style="stop-color:#243C91"/>
			<stop  offset="1" style="stop-color:#B455A0"/>
		</linearGradient>
		<path style="fill:url(#SVGID_00000124848545602264627220000004502156523826310541_);" d="M737.5,333.1l-4.5-13.4h-29.6l-4.5,13.4
			h-15.8l26-74.3h18.1l26.1,74.3L737.5,333.1L737.5,333.1z M708.2,306.1h20.4l-10.2-30.3L708.2,306.1z"/>
		
			<linearGradient id="SVGID_00000174602992680770273040000010184448461006911399_" gradientUnits="userSpaceOnUse" x1="509.9135" y1="381.0856" x2="1238.9755" y2="162.7909">
			<stop  offset="0.6506" style="stop-color:#243C91"/>
			<stop  offset="1" style="stop-color:#B455A0"/>
		</linearGradient>
		<path style="fill:url(#SVGID_00000174602992680770273040000010184448461006911399_);" d="M755.8,333.1v-13.6
			c4.4,0.6,7.7-0.2,9.9-2.7c2.2-2.4,3.3-7.1,3.3-14.1v-43.9h50.5v74.3H805v-60.3h-21.4v29.5c0,6.4-0.8,11.8-2.3,16.2
			c-1.6,4.4-3.7,7.6-6.4,9.8c-2.7,2.1-5.6,3.5-8.7,4.2C762.9,333.3,759.5,333.5,755.8,333.1z"/>
		
			<linearGradient id="SVGID_00000066499228824443335490000007029769181419815308_" gradientUnits="userSpaceOnUse" x1="516.0228" y1="401.4898" x2="1245.0848" y2="183.1951">
			<stop  offset="0.6506" style="stop-color:#243C91"/>
			<stop  offset="1" style="stop-color:#B455A0"/>
		</linearGradient>
		<path style="fill:url(#SVGID_00000066499228824443335490000007029769181419815308_);" d="M895.7,323.4
			c-7.5,7.5-16.6,11.2-27.4,11.2c-10.8,0-19.9-3.7-27.3-11.2c-7.5-7.5-11.2-16.6-11.2-27.4s3.7-20,11.2-27.4
			c7.5-7.5,16.6-11.2,27.3-11.2s19.9,3.7,27.4,11.2s11.2,16.6,11.2,27.4S903.2,316,895.7,323.4z M851.3,313.5
			c4.6,4.6,10.3,6.8,17.1,6.8s12.5-2.3,17.1-6.8c4.6-4.6,6.9-10.4,6.9-17.4c0-7.1-2.3-12.9-6.9-17.5c-4.6-4.6-10.3-6.9-17.1-6.9
			s-12.5,2.3-17.1,6.9s-6.9,10.4-6.9,17.5C844.4,303.1,846.7,308.9,851.3,313.5z"/>
		
			<linearGradient id="SVGID_00000012457629553997025680000009282884527555946939_" gradientUnits="userSpaceOnUse" x1="522.3974" y1="422.7797" x2="1251.4595" y2="204.485">
			<stop  offset="0.6506" style="stop-color:#243C91"/>
			<stop  offset="1" style="stop-color:#B455A0"/>
		</linearGradient>
		<path style="fill:url(#SVGID_00000012457629553997025680000009282884527555946939_);" d="M959.5,258.9H974v74.3h-14.5v-30.8h-27.6
			v30.8h-14.6v-74.3h14.6v29.5h27.6V258.9z"/>
		
			<linearGradient id="SVGID_00000077325621981000208050000008675410230233308810_" gradientUnits="userSpaceOnUse" x1="528.1978" y1="442.152" x2="1257.2599" y2="223.8572">
			<stop  offset="0.6506" style="stop-color:#243C91"/>
			<stop  offset="1" style="stop-color:#B455A0"/>
		</linearGradient>
		<path style="fill:url(#SVGID_00000077325621981000208050000008675410230233308810_);" d="M1030,258.9h14.5v74.3H1030v-30.8h-27.6
			v30.8h-14.6v-74.3h14.6v29.5h27.6V258.9z"/>
		
			<linearGradient id="SVGID_00000085950341081761541610000007357999783625948037_" gradientUnits="userSpaceOnUse" x1="534.6948" y1="463.8505" x2="1263.7568" y2="245.5558">
			<stop  offset="0.6506" style="stop-color:#243C91"/>
			<stop  offset="1" style="stop-color:#B455A0"/>
		</linearGradient>
		<path style="fill:url(#SVGID_00000085950341081761541610000007357999783625948037_);" d="M1058.3,333.1v-74.3h14.6v24.4h13
			c7.1,0,13.2,2.4,18,7.2c4.9,4.8,7.3,10.7,7.3,17.7s-2.4,12.9-7.3,17.7c-4.9,4.8-10.9,7.2-18,7.2L1058.3,333.1L1058.3,333.1z
			 M1073,319.5h13c3.1,0,5.7-1.1,7.7-3.2c2.1-2.1,3.1-4.8,3.1-8.1c0-3.3-1-5.9-3.1-8.1c-2.1-2.1-4.6-3.2-7.7-3.2h-13V319.5z
			 M1118.1,333.1v-74.3h14.5v74.3L1118.1,333.1L1118.1,333.1z"/>
		
			<linearGradient id="SVGID_00000038384499571031465880000003569596724305661886_" gradientUnits="userSpaceOnUse" x1="540.7832" y1="484.1845" x2="1269.8452" y2="265.8898">
			<stop  offset="0.6506" style="stop-color:#243C91"/>
			<stop  offset="1" style="stop-color:#B455A0"/>
		</linearGradient>
		<path style="fill:url(#SVGID_00000038384499571031465880000003569596724305661886_);" d="M1161.1,319.1h31.3v14h-45.9v-74.3h45.4
			v14h-30.8v15.8h28.1v13.8h-28.1V319.1z"/>
	</g>
	<g>
		
			<linearGradient id="SVGID_00000036237051191403586350000013912046213768624259_" gradientUnits="userSpaceOnUse" x1="522.902" y1="424.4651" x2="1251.9641" y2="206.1703">
			<stop  offset="0.6506" style="stop-color:#243C91"/>
			<stop  offset="1" style="stop-color:#B455A0"/>
		</linearGradient>
		<path style="fill:url(#SVGID_00000036237051191403586350000013912046213768624259_);" d="M593.7,449.1h-16.9l-26.5-34.8v34.8
			h-14.6v-74.3h14.6v32.8l25.5-32.8h16.9l-27.5,36.1L593.7,449.1z"/>
		
			<linearGradient id="SVGID_00000017480801530753116990000015565329378626855859_" gradientUnits="userSpaceOnUse" x1="528.2394" y1="442.2906" x2="1257.3014" y2="223.9959">
			<stop  offset="0.6506" style="stop-color:#243C91"/>
			<stop  offset="1" style="stop-color:#B455A0"/>
		</linearGradient>
		<path style="fill:url(#SVGID_00000017480801530753116990000015565329378626855859_);" d="M657.1,439.3
			c-7.5,7.5-16.6,11.2-27.4,11.2c-10.8,0-19.9-3.7-27.3-11.2c-7.5-7.5-11.2-16.6-11.2-27.4s3.7-20,11.2-27.4
			c7.5-7.5,16.6-11.2,27.3-11.2s19.9,3.7,27.4,11.2s11.2,16.6,11.2,27.4C668.3,422.7,664.6,431.9,657.1,439.3z M612.6,429.4
			c4.6,4.6,10.3,6.8,17.1,6.8s12.5-2.3,17.1-6.8c4.6-4.6,6.9-10.4,6.9-17.4c0-7.1-2.3-12.9-6.9-17.5c-4.6-4.6-10.3-6.9-17.1-6.9
			s-12.5,2.3-17.1,6.9s-6.9,10.4-6.9,17.5C605.7,419,608,424.8,612.6,429.4z"/>
		
			<linearGradient id="SVGID_00000060006026843144451850000018111823745915095969_" gradientUnits="userSpaceOnUse" x1="534.6057" y1="463.5531" x2="1263.6677" y2="245.2583">
			<stop  offset="0.6506" style="stop-color:#243C91"/>
			<stop  offset="1" style="stop-color:#B455A0"/>
		</linearGradient>
		<path style="fill:url(#SVGID_00000060006026843144451850000018111823745915095969_);" d="M720.8,374.8h14.5v74.3h-14.5v-30.8
			h-27.6v30.8h-14.6v-74.3h14.6v29.5h27.6V374.8z"/>
		
			<linearGradient id="SVGID_00000147933193774681515740000004401987711918994874_" gradientUnits="userSpaceOnUse" x1="542.641" y1="490.3892" x2="1271.703" y2="272.0945">
			<stop  offset="0.6506" style="stop-color:#243C91"/>
			<stop  offset="1" style="stop-color:#B455A0"/>
		</linearGradient>
		<path style="fill:url(#SVGID_00000147933193774681515740000004401987711918994874_);" d="M804.6,435.1h8v28.2H798v-14.2h-48.8
			v-74.3h14.6v60.3H790v-60.3h14.6V435.1z"/>
		
			<linearGradient id="SVGID_00000019636218153361230870000006743338176572949170_" gradientUnits="userSpaceOnUse" x1="545.9926" y1="501.5832" x2="1275.0547" y2="283.2884">
			<stop  offset="0.6506" style="stop-color:#243C91"/>
			<stop  offset="1" style="stop-color:#B455A0"/>
		</linearGradient>
		<path style="fill:url(#SVGID_00000019636218153361230870000006743338176572949170_);" d="M837,435.1h31.3v14h-45.9v-74.3h45.4v14
			H837v15.8h28.1v13.8H837V435.1z"/>
		
			<linearGradient id="SVGID_00000075127259590873386230000010397794232356244130_" gradientUnits="userSpaceOnUse" x1="551.5409" y1="520.1133" x2="1280.6029" y2="301.8186">
			<stop  offset="0.6506" style="stop-color:#243C91"/>
			<stop  offset="1" style="stop-color:#B455A0"/>
		</linearGradient>
		<path style="fill:url(#SVGID_00000075127259590873386230000010397794232356244130_);" d="M913.2,450.5c-11.2,0-20.4-3.7-27.7-11.1
			s-10.9-16.6-10.9-27.5c0-11,3.6-20.1,10.9-27.5c7.3-7.4,16.5-11.1,27.7-11.1c6.7,0,12.9,1.6,18.6,4.7c5.7,3.1,10.1,7.4,13.3,12.8
			l-12.6,7.3c-1.8-3.3-4.5-5.9-7.9-7.8s-7.2-2.8-11.5-2.8c-7.2,0-13,2.3-17.4,6.8s-6.6,10.4-6.6,17.6c0,7.1,2.2,13,6.6,17.5
			c4.4,4.5,10.2,6.8,17.4,6.8c4.2,0,8.1-0.9,11.5-2.8s6-4.4,7.8-7.7L945,433c-3.2,5.4-7.6,9.6-13.3,12.8
			C926.3,449,920,450.5,913.2,450.5z"/>
		
			<linearGradient id="SVGID_00000082351461437413570620000013971241531022908347_" gradientUnits="userSpaceOnUse" x1="557.751" y1="540.8536" x2="1286.813" y2="322.5589">
			<stop  offset="0.6506" style="stop-color:#243C91"/>
			<stop  offset="1" style="stop-color:#B455A0"/>
		</linearGradient>
		<path style="fill:url(#SVGID_00000082351461437413570620000013971241531022908347_);" d="M988.7,450.5c-11.2,0-20.4-3.7-27.7-11.1
			s-10.9-16.6-10.9-27.5c0-11,3.6-20.1,10.9-27.5c7.3-7.4,16.5-11.1,27.7-11.1c6.7,0,12.9,1.6,18.6,4.7c5.7,3.1,10.1,7.4,13.3,12.8
			l-12.6,7.3c-1.8-3.3-4.5-5.9-7.9-7.8s-7.2-2.8-11.5-2.8c-7.2,0-13,2.3-17.4,6.8s-6.6,10.4-6.6,17.6c0,7.1,2.2,13,6.6,17.5
			c4.4,4.5,10.2,6.8,17.4,6.8c4.2,0,8.1-0.9,11.5-2.8s6-4.4,7.8-7.7l12.6,7.3c-3.2,5.4-7.6,9.6-13.3,12.8
			C1001.7,449,995.5,450.5,988.7,450.5z"/>
		
			<linearGradient id="SVGID_00000129884870512721088450000010172093916166573217_" gradientUnits="userSpaceOnUse" x1="563.5255" y1="560.1396" x2="1292.5875" y2="341.8448">
			<stop  offset="0.6506" style="stop-color:#243C91"/>
			<stop  offset="1" style="stop-color:#B455A0"/>
		</linearGradient>
		<path style="fill:url(#SVGID_00000129884870512721088450000010172093916166573217_);" d="M1072.6,449.1v-45.3l-31.8,45.3h-11.1
			v-74.3h14.6v45.4l31.8-45.4h11.1v74.3L1072.6,449.1L1072.6,449.1z"/>
		
			<linearGradient id="SVGID_00000044173850490339379750000002274299636488879507_" gradientUnits="userSpaceOnUse" x1="569.3918" y1="579.7317" x2="1298.4537" y2="361.4369">
			<stop  offset="0.6506" style="stop-color:#243C91"/>
			<stop  offset="1" style="stop-color:#B455A0"/>
		</linearGradient>
		<path style="fill:url(#SVGID_00000044173850490339379750000002274299636488879507_);" d="M1144,449.1v-45.3l-31.8,45.3H1101v-74.3
			h14.6v45.4l31.8-45.4h11.1v74.3L1144,449.1L1144,449.1z"/>
	</g>
</g>
</svg>
